<svg xmlns="http://www.w3.org/2000/svg" viewBox="0 0 402 144" width="402" height="144" role="img" aria-label="RMT Solutions, The Complete Lift Plan Company"><title>RMT Solutions, The Complete Lift Plan Company</title><defs><linearGradient id="rmt-rise" gradientUnits="userSpaceOnUse" x1="79.62" y1="-13.74" x2="34.28" y2="125.81"><stop offset="0" stop-color="#8dc63b"/><stop offset="0.25" stop-color="#6bae3c"/><stop offset="0.5" stop-color="#457477"/><stop offset="0.75" stop-color="#254b6a"/><stop offset="1" stop-color="#1a3f5a"/></linearGradient><linearGradient id="rmt-frame" gradientUnits="userSpaceOnUse" x1="58.13" y1="-6.39" x2="-5.93" y2="64.76"><stop offset="0" stop-color="#7091a4"/><stop offset="0.25" stop-color="#678a9e"/><stop offset="0.5" stop-color="#53788e"/><stop offset="0.75" stop-color="#40667f"/><stop offset="1" stop-color="#274860"/></linearGradient><linearGradient id="rmt-bowl" gradientUnits="userSpaceOnUse" x1="102.73" y1="46.03" x2="37.05" y2="105.16"><stop offset="0" stop-color="#83b744"/><stop offset="0.25" stop-color="#64a23e"/><stop offset="0.5" stop-color="#50924d"/><stop offset="0.75" stop-color="#397854"/><stop offset="1" stop-color="#256259"/></linearGradient><linearGradient id="rmt-r" gradientUnits="userSpaceOnUse" x1="180.6" y1="5.15" x2="164.84" y2="79.28"><stop offset="0" stop-color="#51768a"/><stop offset="0.25" stop-color="#3e667c"/><stop offset="0.5" stop-color="#275069"/><stop offset="0.75" stop-color="#1a435f"/><stop offset="1" stop-color="#143a56"/></linearGradient><linearGradient id="rmt-m" gradientUnits="userSpaceOnUse" x1="294.21" y1="-5.12" x2="247.43" y2="90.79"><stop offset="0" stop-color="#86c147"/><stop offset="0.25" stop-color="#65a641"/><stop offset="0.5" stop-color="#519150"/><stop offset="0.75" stop-color="#336f5d"/><stop offset="1" stop-color="#1c4e5d"/></linearGradient><linearGradient id="rmt-t" gradientUnits="userSpaceOnUse" x1="368.06" y1="1.51" x2="357.83" y2="74.26"><stop offset="0" stop-color="#92c84d"/><stop offset="0.25" stop-color="#79bd35"/><stop offset="0.5" stop-color="#6bae3e"/><stop offset="0.75" stop-color="#55a63d"/><stop offset="1" stop-color="#458d3d"/></linearGradient></defs><g id="mark"><path fill="url(#rmt-frame)" d="M0.47 6.95L57.67 6.95A44.21 44.21 0 0 1 87.31 18.36L73.43 31.16A27.14 27.14 0 0 0 55.09 24.02L20.51 24.02L20.51 51.67L0.47 72.35Z"/><path fill="url(#rmt-rise)" d="M0.47 116.02L0.47 79.29L46.46 31.83L62.47 48.28L94.83 18.43L85.38 7.61L126.49 0.38L115.53 40.8L105.95 30.48L61.85 71.17L46.48 55.38L20.51 82.18L20.51 116.02Z"/><path fill="url(#rmt-bowl)" d="M26.94 95.37L57.67 95.37A44.21 44.21 0 0 0 100.89 41.85L80.52 60.64A27.14 27.14 0 0 1 55.09 78.3L34.39 78.3Q26.94 78.3 26.94 85.75Z"/></g><g id="wordmark"><path fill="url(#rmt-r)" d="M140.21 74.44V5.99H175.6Q192.88 5.99 202.47 12.59Q212.05 19.19 212.05 30.83Q212.05 38.46 207.67 43.98Q203.29 49.51 195.25 52.44Q187.2 55.37 176.07 55.37H150.86L159.39 48.43V74.44ZM192.88 74.44 172.17 49.6H192.64L213.59 74.44ZM159.39 50.19 150.86 42.76H175.01Q183.88 42.76 188.26 39.58Q192.64 36.4 192.64 30.83Q192.64 25.16 188.26 22.03Q183.88 18.9 175.01 18.9H150.86L159.39 11.37Z"/><path fill="url(#rmt-m)" d="M225.72 74.44V5.99H241.58L276.84 54.3H268.44L303.12 5.99H318.86L319.1 74.44H301.11L300.99 28.78H304.3L276.61 67.21H267.97L239.68 28.78H243.71V74.44Z"/><path fill="url(#rmt-t)" d="M354.98 74.44V18.9H328.47V5.99H400.66V18.9H374.15V74.44Z"/><path fill="#14324f" d="M151.82 116.59Q148.16 116.59 144.81 115.67Q141.46 114.75 139.41 113.27L141.8 108.28Q143.76 109.59 146.44 110.43Q149.12 111.27 151.87 111.27Q153.96 111.27 155.24 110.88Q156.53 110.49 157.14 109.79Q157.75 109.1 157.75 108.19Q157.75 107.05 156.79 106.37Q155.83 105.7 154.26 105.27Q152.69 104.84 150.8 104.45Q148.9 104.06 147.01 103.49Q145.11 102.91 143.55 102.01Q141.98 101.11 141 99.64Q140.02 98.16 140.02 95.87Q140.02 93.41 141.43 91.39Q142.85 89.36 145.7 88.15Q148.56 86.94 152.87 86.94Q155.74 86.94 158.53 87.58Q161.32 88.21 163.45 89.48L161.28 94.52Q159.14 93.37 157.01 92.82Q154.87 92.27 152.82 92.27Q150.78 92.27 149.47 92.72Q148.16 93.17 147.6 93.88Q147.03 94.6 147.03 95.54Q147.03 96.65 147.99 97.32Q148.95 98 150.52 98.41Q152.08 98.82 153.98 99.23Q155.87 99.64 157.77 100.17Q159.66 100.7 161.23 101.6Q162.8 102.5 163.78 103.98Q164.76 105.45 164.76 107.7Q164.76 110.12 163.32 112.13Q161.89 114.13 159.03 115.36Q156.18 116.59 151.82 116.59ZM184.75 116.59Q181.14 116.59 178.07 115.48Q174.99 114.38 172.75 112.37Q170.51 110.37 169.27 107.66Q168.02 104.96 168.02 101.77Q168.02 98.57 169.27 95.87Q170.51 93.17 172.77 91.16Q175.04 89.15 178.09 88.05Q181.14 86.94 184.71 86.94Q188.32 86.94 191.35 88.05Q194.38 89.15 196.62 91.16Q198.87 93.17 200.13 95.85Q201.39 98.53 201.39 101.77Q201.39 104.96 200.13 107.68Q198.87 110.41 196.62 112.39Q194.38 114.38 191.35 115.48Q188.32 116.59 184.75 116.59ZM184.71 110.94Q186.76 110.94 188.48 110.28Q190.2 109.63 191.5 108.4Q192.81 107.17 193.53 105.49Q194.25 103.81 194.25 101.77Q194.25 99.72 193.53 98.04Q192.81 96.36 191.53 95.13Q190.24 93.9 188.5 93.25Q186.76 92.59 184.71 92.59Q182.66 92.59 180.94 93.25Q179.22 93.9 177.91 95.13Q176.61 96.36 175.89 98.04Q175.17 99.72 175.17 101.77Q175.17 103.77 175.89 105.47Q176.61 107.17 177.89 108.4Q179.18 109.63 180.92 110.28Q182.66 110.94 184.71 110.94ZM206 116.1V87.43H213.06V110.69H228.35V116.1ZM246.06 116.59Q239.57 116.59 235.91 113.19Q232.25 109.79 232.25 103.49V87.43H239.31V103.24Q239.31 107.34 241.09 109.14Q242.88 110.94 246.1 110.94Q249.32 110.94 251.11 109.14Q252.9 107.34 252.9 103.24V87.43H259.87V103.49Q259.87 109.79 256.21 113.19Q252.55 116.59 246.06 116.59ZM273 116.1V92.84H263.24V87.43H289.82V92.84H280.06V116.1ZM293.96 116.1V87.43H301.02V116.1ZM322.43 116.59Q318.81 116.59 315.74 115.48Q312.67 114.38 310.42 112.37Q308.18 110.37 306.94 107.66Q305.7 104.96 305.7 101.77Q305.7 98.57 306.94 95.87Q308.18 93.17 310.45 91.16Q312.71 89.15 315.76 88.05Q318.81 86.94 322.38 86.94Q326 86.94 329.03 88.05Q332.05 89.15 334.3 91.16Q336.54 93.17 337.8 95.85Q339.07 98.53 339.07 101.77Q339.07 104.96 337.8 107.68Q336.54 110.41 334.3 112.39Q332.05 114.38 329.03 115.48Q326 116.59 322.43 116.59ZM322.38 110.94Q324.43 110.94 326.15 110.28Q327.87 109.63 329.18 108.4Q330.49 107.17 331.2 105.49Q331.92 103.81 331.92 101.77Q331.92 99.72 331.2 98.04Q330.49 96.36 329.2 95.13Q327.91 93.9 326.17 93.25Q324.43 92.59 322.38 92.59Q320.34 92.59 318.61 93.25Q316.89 93.9 315.59 95.13Q314.28 96.36 313.56 98.04Q312.84 99.72 312.84 101.77Q312.84 103.77 313.56 105.47Q314.28 107.17 315.57 108.4Q316.85 109.63 318.59 110.28Q320.34 110.94 322.38 110.94ZM344 116.1V87.43H349.84L367.83 108.07H365V87.43H371.97V116.1H366.17L348.14 95.46H350.97V116.1ZM389.08 116.59Q385.42 116.59 382.07 115.67Q378.71 114.75 376.67 113.27L379.06 108.28Q381.02 109.59 383.7 110.43Q386.38 111.27 389.12 111.27Q391.22 111.27 392.5 110.88Q393.79 110.49 394.4 109.79Q395 109.1 395 108.19Q395 107.05 394.05 106.37Q393.09 105.7 391.52 105.27Q389.95 104.84 388.06 104.45Q386.16 104.06 384.27 103.49Q382.37 102.91 380.8 102.01Q379.24 101.11 378.26 99.64Q377.28 98.16 377.28 95.87Q377.28 93.41 378.69 91.39Q380.11 89.36 382.96 88.15Q385.81 86.94 390.13 86.94Q393 86.94 395.79 87.58Q398.58 88.21 400.71 89.48L398.53 94.52Q396.4 93.37 394.26 92.82Q392.13 92.27 390.08 92.27Q388.04 92.27 386.73 92.72Q385.42 93.17 384.86 93.88Q384.29 94.6 384.29 95.54Q384.29 96.65 385.25 97.32Q386.21 98 387.77 98.41Q389.34 98.82 391.24 99.23Q393.13 99.64 395.03 100.17Q396.92 100.7 398.49 101.6Q400.06 102.5 401.04 103.98Q402.02 105.45 402.02 107.7Q402.02 110.12 400.58 112.13Q399.14 114.13 396.29 115.36Q393.44 116.59 389.08 116.59Z"/></g><g id="strapline"><path fill="#14324f" d="M4.76 143.79V132.03H0.29V129.3H12.47V132.03H8V143.79ZM24.11 143.79V129.3H27.34V143.79ZM14.52 143.79V129.3H17.76V143.79ZM17.52 137.85V135.01H24.35V137.85ZM31 143.79V129.3H41.57V131.99H34.22V141.1H41.83V143.79ZM33.98 137.74V135.13H40.71V137.74ZM57.43 144.04Q55.81 144.04 54.42 143.49Q53.03 142.94 52.02 141.92Q51 140.91 50.43 139.54Q49.86 138.18 49.86 136.54Q49.86 134.91 50.43 133.54Q51 132.17 52.03 131.16Q53.05 130.15 54.43 129.6Q55.81 129.05 57.45 129.05Q59.27 129.05 60.73 129.7Q62.2 130.35 63.2 131.61L61.12 133.6Q60.4 132.75 59.53 132.33Q58.65 131.9 57.61 131.9Q56.63 131.9 55.81 132.24Q54.99 132.57 54.39 133.19Q53.79 133.81 53.46 134.66Q53.13 135.51 53.13 136.54Q53.13 137.58 53.46 138.43Q53.79 139.27 54.39 139.9Q54.99 140.52 55.81 140.85Q56.63 141.18 57.61 141.18Q58.65 141.18 59.53 140.75Q60.4 140.33 61.12 139.46L63.2 141.45Q62.2 142.71 60.73 143.37Q59.27 144.04 57.43 144.04ZM72.33 144.04Q70.67 144.04 69.26 143.48Q67.85 142.92 66.82 141.9Q65.79 140.89 65.23 139.52Q64.66 138.16 64.66 136.54Q64.66 134.93 65.23 133.56Q65.79 132.19 66.83 131.18Q67.87 130.17 69.27 129.61Q70.67 129.05 72.31 129.05Q73.96 129.05 75.35 129.61Q76.74 130.17 77.77 131.18Q78.8 132.19 79.38 133.55Q79.96 134.91 79.96 136.54Q79.96 138.16 79.38 139.53Q78.8 140.91 77.77 141.91Q76.74 142.92 75.35 143.48Q73.96 144.04 72.33 144.04ZM72.31 141.18Q73.24 141.18 74.03 140.85Q74.82 140.52 75.42 139.9Q76.02 139.27 76.35 138.43Q76.68 137.58 76.68 136.54Q76.68 135.51 76.35 134.66Q76.02 133.81 75.43 133.19Q74.84 132.57 74.04 132.24Q73.24 131.9 72.31 131.9Q71.37 131.9 70.58 132.24Q69.79 132.57 69.19 133.19Q68.59 133.81 68.26 134.66Q67.93 135.51 67.93 136.54Q67.93 137.56 68.26 138.42Q68.59 139.27 69.18 139.9Q69.77 140.52 70.57 140.85Q71.37 141.18 72.31 141.18ZM82.53 143.79V129.3H85.21L91.16 139.52H89.75L95.6 129.3H98.25L98.29 143.79H95.26L95.24 134.12H95.8L91.12 142.26H89.67L84.89 134.12H85.57V143.79ZM102 143.79V129.3H108.05Q109.93 129.3 111.29 129.93Q112.65 130.56 113.38 131.74Q114.12 132.92 114.12 134.55Q114.12 136.17 113.38 137.35Q112.65 138.53 111.29 139.16Q109.93 139.79 108.05 139.79H103.8L105.24 138.28V143.79ZM105.24 138.65 103.8 137.06H107.87Q109.37 137.06 110.11 136.4Q110.85 135.73 110.85 134.55Q110.85 133.35 110.11 132.69Q109.37 132.03 107.87 132.03H103.8L105.24 130.43ZM116.98 143.79V129.3H120.21V141.05H127.22V143.79ZM129.16 143.79V129.3H139.73V131.99H132.38V141.1H139.99V143.79ZM132.14 137.74V135.13H138.87V137.74ZM146 143.79V132.03H141.53V129.3H153.71V132.03H149.24V143.79ZM156 143.79V129.3H166.57V131.99H159.22V141.1H166.83V143.79ZM158.98 137.74V135.13H165.71V137.74ZM175.8 143.79V129.3H179.04V141.05H186.05V143.79ZM188 143.79V129.3H191.23V143.79ZM195 143.79V129.3H205.57V131.99H198.24V143.79ZM198 138.51V135.82H204.71V138.51ZM211 143.79V132.03H206.52V129.3H218.71V132.03H214.23V143.79ZM227 143.79V129.3H233.05Q234.93 129.3 236.29 129.93Q237.65 130.56 238.38 131.74Q239.12 132.92 239.12 134.55Q239.12 136.17 238.38 137.35Q237.65 138.53 236.29 139.16Q234.93 139.79 233.05 139.79H228.8L230.23 138.28V143.79ZM230.23 138.65 228.8 137.06H232.87Q234.37 137.06 235.11 136.4Q235.85 135.73 235.85 134.55Q235.85 133.35 235.11 132.69Q234.37 132.03 232.87 132.03H228.8L230.23 130.43ZM242 143.79V129.3H245.23V141.05H252.25V143.79ZM252.57 143.79 258.8 129.3H262L268.25 143.79H264.85L259.74 130.99H261.02L255.89 143.79ZM255.69 140.68 256.55 138.14H263.74L264.62 140.68ZM270.17 143.79V129.3H272.85L281.1 139.73H279.8V129.3H282.99V143.79H280.34L272.07 133.35H273.37V143.79ZM299.26 144.04Q297.64 144.04 296.25 143.49Q294.87 142.94 293.85 141.92Q292.83 140.91 292.26 139.54Q291.69 138.18 291.69 136.54Q291.69 134.91 292.26 133.54Q292.83 132.17 293.86 131.16Q294.89 130.15 296.26 129.6Q297.64 129.05 299.28 129.05Q301.1 129.05 302.57 129.7Q304.03 130.35 305.03 131.61L302.96 133.6Q302.24 132.75 301.36 132.33Q300.48 131.9 299.44 131.9Q298.46 131.9 297.64 132.24Q296.82 132.57 296.22 133.19Q295.62 133.81 295.29 134.66Q294.97 135.51 294.97 136.54Q294.97 137.58 295.29 138.43Q295.62 139.27 296.22 139.9Q296.82 140.52 297.64 140.85Q298.46 141.18 299.44 141.18Q300.48 141.18 301.36 140.75Q302.24 140.33 302.96 139.46L305.03 141.45Q304.03 142.71 302.57 143.37Q301.1 144.04 299.26 144.04ZM314.06 144.04Q312.41 144.04 311 143.48Q309.59 142.92 308.56 141.9Q307.53 140.89 306.96 139.52Q306.39 138.16 306.39 136.54Q306.39 134.93 306.96 133.56Q307.53 132.19 308.57 131.18Q309.61 130.17 311.01 129.61Q312.41 129.05 314.04 129.05Q315.7 129.05 317.09 129.61Q318.48 130.17 319.51 131.18Q320.54 132.19 321.11 133.55Q321.69 134.91 321.69 136.54Q321.69 138.16 321.11 139.53Q320.54 140.91 319.51 141.91Q318.48 142.92 317.09 143.48Q315.7 144.04 314.06 144.04ZM314.04 141.18Q314.98 141.18 315.77 140.85Q316.56 140.52 317.16 139.9Q317.76 139.27 318.09 138.43Q318.42 137.58 318.42 136.54Q318.42 135.51 318.09 134.66Q317.76 133.81 317.17 133.19Q316.58 132.57 315.78 132.24Q314.98 131.9 314.04 131.9Q313.11 131.9 312.32 132.24Q311.53 132.57 310.93 133.19Q310.33 133.81 310 134.66Q309.67 135.51 309.67 136.54Q309.67 137.56 310 138.42Q310.33 139.27 310.92 139.9Q311.51 140.52 312.31 140.85Q313.11 141.18 314.04 141.18ZM324.26 143.79V129.3H326.94L332.89 139.52H331.48L337.33 129.3H339.98L340.02 143.79H336.99L336.97 134.12H337.53L332.85 142.26H331.4L326.62 134.12H327.3V143.79ZM344 143.79V129.3H350.05Q351.93 129.3 353.29 129.93Q354.65 130.56 355.38 131.74Q356.12 132.92 356.12 134.55Q356.12 136.17 355.38 137.35Q354.65 138.53 353.29 139.16Q351.93 139.79 350.05 139.79H345.8L347.24 138.28V143.79ZM347.24 138.65 345.8 137.06H349.87Q351.37 137.06 352.11 136.4Q352.85 135.73 352.85 134.55Q352.85 133.35 352.11 132.69Q351.37 132.03 349.87 132.03H345.8L347.24 130.43ZM356.06 143.79 362.29 129.3H365.49L371.74 143.79H368.34L363.23 130.99H364.51L359.38 143.79ZM359.18 140.68 360.04 138.14H367.23L368.11 140.68ZM373.95 143.79V129.3H376.63L384.88 139.73H383.58V129.3H386.78V143.79H384.12L375.85 133.35H377.15V143.79ZM393.92 143.79V137.87L394.66 139.9L388.51 129.3H391.95L396.66 137.43H394.68L399.42 129.3H402.59L396.44 139.9L397.16 137.87V143.79Z"/></g></svg>
